<svg id="email" xmlns="http://www.w3.org/2000/svg" width="22" height="18" viewBox="0 0 22 18" fill="none"><path d="M2 5L9.89 10.26C10.2187 10.4793 10.6049 10.5963 11 10.5963C11.3951 10.5963 11.7813 10.4793 12.11 10.26L20 5M4 16H18C18.5304 16 19.0391 15.7893 19.4142 15.4142C19.7893 15.0391 20 14.5304 20 14V4C20 3.46957 19.7893 2.96086 19.4142 2.58579C19.0391 2.21071 18.5304 2 18 2H4C3.46957 2 2.96086 2.21071 2.58579 2.58579C2.21071 2.96086 2 3.46957 2 4V14C2 14.5304 2.21071 15.0391 2.58579 15.4142C2.96086 15.7893 3.46957 16 4 16Z" stroke="black" stroke-width="2" stroke-linecap="round" stroke-linejoin="round"/></svg>